<svg id="outline" xmlns="http://www.w3.org/2000/svg" width="6.01in" height="6.01in" viewBox="0 0 433 433">
  <defs>
    <style>
      .cls-1 {
        fill: #231f20;
      }
    </style>
  </defs>
  <title>open</title>
  <path class="cls-1" d="M216,432.5A216.5,216.5,0,0,1,62.91,62.91,216.5,216.5,0,0,1,369.09,369.09,215.08,215.08,0,0,1,216,432.5Zm0-432A215.5,215.5,0,0,0,63.62,368.38,215.5,215.5,0,0,0,368.38,63.62,214.09,214.09,0,0,0,216,.5Z" transform="translate(0.5 0.5)"/>
  <g>
    <path class="cls-1" d="M74.43,210.63c0-21.69,14.46-36.66,35.25-36.66,24.61,0,36.06,14.76,36.06,37.36s-12.65,36.56-35.35,36.56C89.4,247.89,74.43,235.74,74.43,210.63Zm46.2,0.7c0-12.15-3.31-21.89-11-21.89-6.13-.1-10.34,8.74-10.34,21.19,0,13.16,4.72,21.49,11.15,21.49S120.63,223.78,120.63,211.33Z" transform="translate(0.5 0.5)"/>
    <path class="cls-1" d="M182.3,175.88c23.3,0,27.72,10,27.72,21.49,0,13.26-12.05,19.89-26.41,19.89H176v15.57h6.13v13.26H149.76V232.82h5.62V189h-5.62V175.88H182.3ZM176,206.41h4.52c5.82,0,9.84-3,9.84-8.34,0-5.93-3.52-9.14-9.34-9.14h-5v17.48Z" transform="translate(0.5 0.5)"/>
    <path class="cls-1" d="M274.6,175.88v22.2H257.23v-8.94H241.16V203h19.08v13.36H241.16v16.37h16.07v-9.34H274.6v22.7H214V232.72h6.33V189.13H214V175.88H274.6Z" transform="translate(0.5 0.5)"/>
    <path class="cls-1" d="M349.93,188.83v57.25H328.34l-25.61-38.27v25.31h7.73v13H279.63v-13h5.93V188.83h-5.83v-13h28.82l24.61,36.86v-23.9h-6.83v-13h30.23v13h-6.63Z" transform="translate(0.5 0.5)"/>
  </g>
</svg>
